<svg width="360" height="420" viewBox="0 0 360 420" fill="none" xmlns="http://www.w3.org/2000/svg">
  <defs>
    <radialGradient id="bg" cx="0" cy="0" r="1" gradientUnits="userSpaceOnUse" gradientTransform="translate(180 182) rotate(90) scale(168 122)">
      <stop stop-color="#6AF7FF" stop-opacity="0.35"/>
      <stop offset="1" stop-color="#6AF7FF" stop-opacity="0"/>
    </radialGradient>
    <linearGradient id="coat" x1="112" y1="176" x2="246" y2="330" gradientUnits="userSpaceOnUse">
      <stop stop-color="#FFD54F"/>
      <stop offset="1" stop-color="#FF9D2F"/>
    </linearGradient>
    <linearGradient id="fur" x1="140" y1="86" x2="220" y2="210" gradientUnits="userSpaceOnUse">
      <stop stop-color="#3B4357"/>
      <stop offset="1" stop-color="#121722"/>
    </linearGradient>
  </defs>
  <ellipse cx="180" cy="316" rx="78" ry="18" fill="#04101E" fill-opacity="0.55"/>
  <circle cx="180" cy="188" r="140" fill="url(#bg)"/>
  <path d="M131 76L155 122L116 129L131 76Z" fill="url(#fur)"/>
  <path d="M230 76L206 122L245 129L230 76Z" fill="url(#fur)"/>
  <path d="M180 101C136.922 101 102 135.922 102 179C102 222.078 136.922 257 180 257C223.078 257 258 222.078 258 179C258 135.922 223.078 101 180 101Z" fill="url(#fur)"/>
  <ellipse cx="150" cy="173" rx="22" ry="26" fill="#F4FBFF"/>
  <ellipse cx="210" cy="173" rx="22" ry="26" fill="#F4FBFF"/>
  <ellipse cx="150" cy="177" rx="14" ry="18" fill="#79B3FF"/>
  <ellipse cx="210" cy="177" rx="14" ry="18" fill="#79B3FF"/>
  <ellipse cx="150" cy="181" rx="7" ry="9" fill="#142338"/>
  <ellipse cx="210" cy="181" rx="7" ry="9" fill="#142338"/>
  <path d="M168 198C173 205 187 205 192 198" stroke="#D3E0F5" stroke-width="4" stroke-linecap="round"/>
  <path d="M119 221L130 345C149 358 211 358 230 345L241 221L214 205L146 205L119 221Z" fill="url(#coat)"/>
  <path d="M149 205H211V322H149V205Z" fill="#0D1018"/>
  <path d="M123 228C110 241 109 275 121 294" stroke="#F8B93A" stroke-width="12" stroke-linecap="round"/>
  <path d="M237 228C250 241 251 275 239 294" stroke="#F8B93A" stroke-width="12" stroke-linecap="round"/>
  <rect x="165" y="222" width="30" height="34" rx="14" fill="#0A0E16"/>
  <rect x="162" y="247" width="36" height="7" rx="3.5" fill="#FFD54F"/>
  <path d="M150 345L137 390H168L173 345H150Z" fill="#FFB62E"/>
  <path d="M210 345L205 390H236L223 345H210Z" fill="#FFB62E"/>
  <rect x="130" y="383" width="48" height="18" rx="9" fill="#E8EDF5"/>
  <rect x="199" y="383" width="48" height="18" rx="9" fill="#E8EDF5"/>
  <path d="M90 314C107 320 121 330 126 344" stroke="#2E3447" stroke-width="14" stroke-linecap="round"/>
</svg>
